<mxfile host="app.diagrams.net" modified="2024-06-18T15:00:06.843Z" agent="Mozilla/5.0 (Windows NT 10.0; Win64; x64) AppleWebKit/537.36 (KHTML, like Gecko) Chrome/126.0.0.0 Safari/537.36" etag="lLAOp6q7u-7A-cdWYiuh" version="24.5.5" type="google">
  <diagram name="Página-1" id="46FqPhjNtLZTeACpWDf9">
    <mxGraphModel dx="1793" dy="2144" grid="1" gridSize="10" guides="1" tooltips="1" connect="1" arrows="1" fold="1" page="1" pageScale="1" pageWidth="827" pageHeight="1169" math="0" shadow="0">
      <root>
        <mxCell id="0" />
        <mxCell id="1" parent="0" />
        <mxCell id="qLr2zwDLfjucDVhc757w-2" value="&lt;b&gt;&lt;font style=&quot;font-size: 14px;&quot;&gt;UML&lt;/font&gt;&lt;/b&gt;" style="text;html=1;align=center;verticalAlign=middle;whiteSpace=wrap;rounded=0;" vertex="1" parent="1">
          <mxGeometry x="50" y="-35" width="60" height="30" as="geometry" />
        </mxCell>
        <mxCell id="qLr2zwDLfjucDVhc757w-48" value="&lt;b&gt;&lt;font style=&quot;font-size: 14px;&quot;&gt;UML&lt;/font&gt;&lt;/b&gt;" style="ellipse;whiteSpace=wrap;html=1;" vertex="1" parent="1">
          <mxGeometry x="20" y="-60" width="120" height="80" as="geometry" />
        </mxCell>
        <mxCell id="qLr2zwDLfjucDVhc757w-54" style="edgeStyle=orthogonalEdgeStyle;rounded=0;orthogonalLoop=1;jettySize=auto;html=1;exitX=0;exitY=0;exitDx=0;exitDy=0;entryX=0;entryY=0.5;entryDx=0;entryDy=0;" edge="1" parent="1" source="qLr2zwDLfjucDVhc757w-49" target="qLr2zwDLfjucDVhc757w-51">
          <mxGeometry relative="1" as="geometry" />
        </mxCell>
        <mxCell id="qLr2zwDLfjucDVhc757w-49" value="&lt;b&gt;&lt;font style=&quot;font-size: 17px;&quot;&gt;usuario&lt;/font&gt;&lt;/b&gt;" style="ellipse;whiteSpace=wrap;html=1;" vertex="1" parent="1">
          <mxGeometry x="220" y="-60" width="120" height="80" as="geometry" />
        </mxCell>
        <mxCell id="qLr2zwDLfjucDVhc757w-59" style="edgeStyle=orthogonalEdgeStyle;rounded=0;orthogonalLoop=1;jettySize=auto;html=1;exitX=0.5;exitY=1;exitDx=0;exitDy=0;" edge="1" parent="1" source="qLr2zwDLfjucDVhc757w-51" target="qLr2zwDLfjucDVhc757w-58">
          <mxGeometry relative="1" as="geometry" />
        </mxCell>
        <mxCell id="qLr2zwDLfjucDVhc757w-51" value="&lt;b&gt;&lt;font style=&quot;font-size: 18px;&quot;&gt;Conta&lt;/font&gt;&lt;/b&gt;" style="ellipse;whiteSpace=wrap;html=1;" vertex="1" parent="1">
          <mxGeometry x="320" y="-250" width="120" height="80" as="geometry" />
        </mxCell>
        <mxCell id="qLr2zwDLfjucDVhc757w-52" value="&lt;b&gt;&lt;font style=&quot;font-size: 14px;&quot;&gt;Perfil&lt;/font&gt;&lt;/b&gt;" style="ellipse;whiteSpace=wrap;html=1;" vertex="1" parent="1">
          <mxGeometry x="414" y="-40" width="120" height="80" as="geometry" />
        </mxCell>
        <mxCell id="qLr2zwDLfjucDVhc757w-55" style="edgeStyle=orthogonalEdgeStyle;rounded=0;orthogonalLoop=1;jettySize=auto;html=1;exitX=0.5;exitY=0;exitDx=0;exitDy=0;entryX=1;entryY=0.5;entryDx=0;entryDy=0;" edge="1" parent="1" source="qLr2zwDLfjucDVhc757w-53" target="qLr2zwDLfjucDVhc757w-51">
          <mxGeometry relative="1" as="geometry" />
        </mxCell>
        <mxCell id="qLr2zwDLfjucDVhc757w-56" style="edgeStyle=orthogonalEdgeStyle;rounded=0;orthogonalLoop=1;jettySize=auto;html=1;exitX=0;exitY=0;exitDx=0;exitDy=0;entryX=0.5;entryY=1;entryDx=0;entryDy=0;" edge="1" parent="1" source="qLr2zwDLfjucDVhc757w-53" target="qLr2zwDLfjucDVhc757w-52">
          <mxGeometry relative="1" as="geometry" />
        </mxCell>
        <mxCell id="qLr2zwDLfjucDVhc757w-69" style="edgeStyle=orthogonalEdgeStyle;rounded=0;orthogonalLoop=1;jettySize=auto;html=1;exitX=0.5;exitY=1;exitDx=0;exitDy=0;entryX=0.5;entryY=1;entryDx=0;entryDy=0;" edge="1" parent="1" source="qLr2zwDLfjucDVhc757w-53" target="qLr2zwDLfjucDVhc757w-68">
          <mxGeometry relative="1" as="geometry" />
        </mxCell>
        <mxCell id="qLr2zwDLfjucDVhc757w-74" style="edgeStyle=orthogonalEdgeStyle;rounded=0;orthogonalLoop=1;jettySize=auto;html=1;exitX=1;exitY=1;exitDx=0;exitDy=0;entryX=0;entryY=0;entryDx=0;entryDy=0;" edge="1" parent="1" source="qLr2zwDLfjucDVhc757w-53" target="qLr2zwDLfjucDVhc757w-73">
          <mxGeometry relative="1" as="geometry" />
        </mxCell>
        <mxCell id="qLr2zwDLfjucDVhc757w-53" value="&lt;span style=&quot;font-size: 14px;&quot;&gt;&lt;b&gt;ACL&lt;/b&gt;&lt;/span&gt;" style="ellipse;whiteSpace=wrap;html=1;" vertex="1" parent="1">
          <mxGeometry x="550" y="30" width="120" height="80" as="geometry" />
        </mxCell>
        <mxCell id="qLr2zwDLfjucDVhc757w-58" value="&lt;span style=&quot;font-size: 17px;&quot;&gt;&lt;b&gt;Catalogo&lt;/b&gt;&lt;/span&gt;" style="ellipse;whiteSpace=wrap;html=1;" vertex="1" parent="1">
          <mxGeometry x="310" y="70" width="120" height="80" as="geometry" />
        </mxCell>
        <mxCell id="qLr2zwDLfjucDVhc757w-67" style="edgeStyle=orthogonalEdgeStyle;rounded=0;orthogonalLoop=1;jettySize=auto;html=1;exitX=1;exitY=1;exitDx=0;exitDy=0;" edge="1" parent="1" source="qLr2zwDLfjucDVhc757w-60">
          <mxGeometry relative="1" as="geometry">
            <mxPoint x="470" y="280" as="targetPoint" />
          </mxGeometry>
        </mxCell>
        <mxCell id="qLr2zwDLfjucDVhc757w-60" value="&lt;span style=&quot;font-size: 17px;&quot;&gt;&lt;b&gt;Filme&lt;/b&gt;&lt;/span&gt;" style="ellipse;whiteSpace=wrap;html=1;" vertex="1" parent="1">
          <mxGeometry x="290" y="180" width="120" height="80" as="geometry" />
        </mxCell>
        <mxCell id="qLr2zwDLfjucDVhc757w-64" style="edgeStyle=orthogonalEdgeStyle;rounded=0;orthogonalLoop=1;jettySize=auto;html=1;exitX=0;exitY=0.5;exitDx=0;exitDy=0;entryX=1;entryY=0.5;entryDx=0;entryDy=0;" edge="1" parent="1" source="qLr2zwDLfjucDVhc757w-61" target="qLr2zwDLfjucDVhc757w-60">
          <mxGeometry relative="1" as="geometry" />
        </mxCell>
        <mxCell id="qLr2zwDLfjucDVhc757w-61" value="&lt;span style=&quot;font-size: 17px;&quot;&gt;&lt;b&gt;Series&lt;/b&gt;&lt;/span&gt;" style="ellipse;whiteSpace=wrap;html=1;" vertex="1" parent="1">
          <mxGeometry x="470" y="160" width="120" height="80" as="geometry" />
        </mxCell>
        <mxCell id="qLr2zwDLfjucDVhc757w-62" style="edgeStyle=orthogonalEdgeStyle;rounded=0;orthogonalLoop=1;jettySize=auto;html=1;exitX=1;exitY=0.5;exitDx=0;exitDy=0;entryX=0.75;entryY=0;entryDx=0;entryDy=0;entryPerimeter=0;" edge="1" parent="1" source="qLr2zwDLfjucDVhc757w-58" target="qLr2zwDLfjucDVhc757w-61">
          <mxGeometry relative="1" as="geometry" />
        </mxCell>
        <mxCell id="qLr2zwDLfjucDVhc757w-63" style="edgeStyle=orthogonalEdgeStyle;rounded=0;orthogonalLoop=1;jettySize=auto;html=1;exitX=0.5;exitY=1;exitDx=0;exitDy=0;entryX=0.621;entryY=0.028;entryDx=0;entryDy=0;entryPerimeter=0;" edge="1" parent="1" source="qLr2zwDLfjucDVhc757w-58" target="qLr2zwDLfjucDVhc757w-60">
          <mxGeometry relative="1" as="geometry" />
        </mxCell>
        <mxCell id="qLr2zwDLfjucDVhc757w-65" value="&lt;span style=&quot;font-size: 17px;&quot;&gt;&lt;b&gt;Genero&lt;/b&gt;&lt;/span&gt;" style="ellipse;whiteSpace=wrap;html=1;" vertex="1" parent="1">
          <mxGeometry x="410" y="280" width="120" height="80" as="geometry" />
        </mxCell>
        <mxCell id="qLr2zwDLfjucDVhc757w-66" style="edgeStyle=orthogonalEdgeStyle;rounded=0;orthogonalLoop=1;jettySize=auto;html=1;exitX=0.5;exitY=1;exitDx=0;exitDy=0;entryX=0.579;entryY=0.028;entryDx=0;entryDy=0;entryPerimeter=0;" edge="1" parent="1" source="qLr2zwDLfjucDVhc757w-61" target="qLr2zwDLfjucDVhc757w-65">
          <mxGeometry relative="1" as="geometry" />
        </mxCell>
        <mxCell id="qLr2zwDLfjucDVhc757w-71" style="edgeStyle=orthogonalEdgeStyle;rounded=0;orthogonalLoop=1;jettySize=auto;html=1;exitX=0.5;exitY=1;exitDx=0;exitDy=0;" edge="1" parent="1" source="qLr2zwDLfjucDVhc757w-68" target="qLr2zwDLfjucDVhc757w-70">
          <mxGeometry relative="1" as="geometry" />
        </mxCell>
        <mxCell id="qLr2zwDLfjucDVhc757w-72" style="edgeStyle=orthogonalEdgeStyle;rounded=0;orthogonalLoop=1;jettySize=auto;html=1;exitX=0.5;exitY=0;exitDx=0;exitDy=0;entryX=0.5;entryY=1;entryDx=0;entryDy=0;" edge="1" parent="1" source="qLr2zwDLfjucDVhc757w-68" target="qLr2zwDLfjucDVhc757w-49">
          <mxGeometry relative="1" as="geometry" />
        </mxCell>
        <mxCell id="qLr2zwDLfjucDVhc757w-68" value="&lt;span style=&quot;font-size: 17px;&quot;&gt;&lt;b&gt;Plano&lt;/b&gt;&lt;/span&gt;" style="ellipse;whiteSpace=wrap;html=1;" vertex="1" parent="1">
          <mxGeometry x="210" y="360" width="120" height="80" as="geometry" />
        </mxCell>
        <mxCell id="qLr2zwDLfjucDVhc757w-70" value="&lt;span style=&quot;font-size: 17px;&quot;&gt;&lt;b&gt;Pagamento&lt;/b&gt;&lt;/span&gt;" style="ellipse;whiteSpace=wrap;html=1;" vertex="1" parent="1">
          <mxGeometry x="200" y="510" width="120" height="80" as="geometry" />
        </mxCell>
        <mxCell id="qLr2zwDLfjucDVhc757w-76" style="edgeStyle=orthogonalEdgeStyle;rounded=0;orthogonalLoop=1;jettySize=auto;html=1;exitX=0.5;exitY=0;exitDx=0;exitDy=0;entryX=1;entryY=1;entryDx=0;entryDy=0;" edge="1" parent="1" source="qLr2zwDLfjucDVhc757w-73" target="qLr2zwDLfjucDVhc757w-51">
          <mxGeometry relative="1" as="geometry" />
        </mxCell>
        <mxCell id="qLr2zwDLfjucDVhc757w-73" value="&lt;span style=&quot;font-size: 14px;&quot;&gt;&lt;span style=&quot;font-size: 14px;&quot;&gt;Restriçoes&amp;nbsp;&lt;/span&gt;&lt;/span&gt;&lt;div style=&quot;font-size: 14px;&quot;&gt;&lt;span style=&quot;font-size: 14px;&quot;&gt;&lt;span style=&quot;font-size: 14px;&quot;&gt;de&lt;/span&gt;&lt;/span&gt;&lt;/div&gt;&lt;div style=&quot;font-size: 14px;&quot;&gt;&lt;span style=&quot;font-size: 14px;&quot;&gt;&lt;span style=&quot;font-size: 14px;&quot;&gt;funcionarios&lt;/span&gt;&lt;/span&gt;&lt;/div&gt;" style="ellipse;whiteSpace=wrap;html=1;fontStyle=3;fontSize=14;" vertex="1" parent="1">
          <mxGeometry x="670" y="70" width="120" height="100" as="geometry" />
        </mxCell>
      </root>
    </mxGraphModel>
  </diagram>
</mxfile>
